<svg xmlns="http://www.w3.org/2000/svg" width="233" height="207">
  <path d="M40.48 75.77L38.37 75.77L38.37 103.65C38.37 114.05 31.07 120.67 21.96 120.67C13.11 120.67 6.96 115.13 6.96 105.59L6.96 75.77L4.86 75.77L4.86 105.89C4.86 116.20 11.77 122.69 21.74 122.69C29.56 122.69 36.57 117.66 38.41 111.21L38.50 111.21L38.50 122L40.48 122ZM50.79 122L52.89 122L52.89 94.24C52.89 84.14 59.47 77.05 68.96 77.05C77.99 77.05 84.30 82.81 84.30 92.18L84.30 122L86.41 122L86.41 92.09C86.41 81.70 79.41 75.08 69.22 75.08C61.14 75.08 54.83 79.85 52.85 86.68L52.77 86.68L52.77 75.77L50.79 75.77ZM96.85 122L98.96 122L98.96 75.77L96.85 75.77ZM97.93 63.30C99.04 63.30 99.99 62.36 99.99 61.24C99.99 60.08 99.04 59.18 97.93 59.18C96.77 59.18 95.82 60.08 95.82 61.24C95.82 62.36 96.77 63.30 97.93 63.30ZM111.85"/>
  <path fill="#007ec6" d="M111.85 122L114.00 122L114.00 77.70L124.18 77.70L124.18 75.77L114.00 75.77L114.00 68.80C114.00 62.49 116.88 60.17 121.47 60.17C122.63 60.17 123.71 60.30 124.61 60.60L124.61 58.62C123.92 58.36 122.72 58.19 121.43 58.19C115.59 58.19 111.85 61.24 111.85 68.50L111.85 75.77L105.40 75.77L105.40 77.70L111.85 77.70ZM132 122L134.11 122L134.11 75.77L132 75.77ZM133.07 63.30C134.19 63.30 135.14 62.36 135.14 61.24C135.14 60.08 134.19 59.18 133.07 59.18C131.91 59.18 130.97 60.08 130.97 61.24C130.97 62.36 131.91 63.30 133.07 63.30ZM162.59 77.05C173.08 77.05 180.13 85.18 180.13 97.04L144.68 97.04C145.19 85.05 152.28 77.05 162.59 77.05ZM179.48 109.15C178.11 115.68 172.22 120.71 162.98 120.71C151.94 120.71 144.63 112.80 144.63 99.05L144.63 98.97L182.27 98.97L182.27 97.34C182.27 84.06 174.37 75.08 162.59 75.08C150.48 75.08 142.48 84.53 142.48 98.88C142.48 113.92 150.52 122.69 162.94 122.69C173.29 122.69 180.13 116.93 181.67 109.15ZM207.58 122.69C216.73 122.69 223.87 116.33 225.80 108.16L225.89 108.16L225.89 122L227.86 122L227.86 57.29L225.71 57.29L225.71 89.30L225.63 89.30C223.82 81.44 216.73 75.08 207.58 75.08C196.02 75.08 187.86 84.75 187.86 98.88C187.86 112.98 196.07 122.69 207.58 122.69ZM207.67 77.05C218.20 77.05 225.71 86.04 225.71 98.88C225.71 111.73 218.20 120.67 207.67 120.67C197.31 120.67 190.01 111.82 190.01 98.84C190.01 85.91 197.31 77.05 207.67 77.05Z"/>
</svg>
